<?xml version="1.0" encoding="UTF-8"?>
<svg width="2232" height="1232" viewBox="0 0 2232 1232" fill="none" xmlns="http://www.w3.org/2000/svg">
  <g clip-path="url(#clip0_85_16)">
    <path
      d="M281 855L264 852V838H297C302 838 308 838 316 837C318 837 320 837 323 837C326 837 329 837 332 837C354 837 370 840 379 846C388 852 392 861 392 874C392 885 389 894 382 901C376 908 367 913 357 914C371 914 382 917 391 924C399 931 403 940 403 952C403 968 398 980 387 989C376 998 359 1003 333 1003C327 1003 321 1003 315 1002C314 1002 311 1002 308 1002C304 1002 301 1002 297 1002H264V988L281 986V855ZM313 909C315 910 318 910 323 910H333C342 910 349 907 353 901C358 896 360 888 360 878C360 868 358 861 353 857C349 852 341 850 330 850C328 850 322 850 313 851V909ZM313 987C316 988 323 989 332 989C345 989 354 986 359 980C365 974 368 966 368 955C368 944 365 936 360 932C355 927 347 925 336 925C324 925 316 925 313 925V987ZM517 1003C495 1003 478 998 467 987C456 976 451 958 451 934V855L437 852V838H503V852L484 855V937C484 972 497 989 522 989C534 989 543 985 549 976C554 967 557 954 557 938V855L538 852V838H594V852L579 855V936C579 959 573 976 562 987C551 998 536 1003 517 1003ZM647 855L628 852V838H699V852L679 855V986L699 989V1002H628V988L647 986V855ZM757 855L740 852V838H810V852L789 855V986L836 984L850 943L868 945L861 1002H739V988L757 986V855ZM919 855L902 852V838H935C939 838 946 838 954 837C956 837 959 837 963 837C967 837 970 837 973 837C1000 837 1021 843 1034 857C1047 870 1054 889 1054 914C1054 932 1051 947 1044 960C1037 974 1028 985 1016 992C1003 1000 989 1003 972 1003C968 1003 962 1003 952 1003C944 1002 938 1002 935 1002H902V988L919 986V855ZM951 987C956 988 963 989 972 989C987 989 998 983 1006 971C1015 960 1019 942 1019 919C1019 897 1015 881 1007 869C998 857 986 851 968 851C965 851 961 851 958 851C955 852 952 852 951 852V987ZM1079 838H1145V852L1125 855L1153 954L1158 978L1163 954L1187 873L1181 855L1166 852V838H1235V852L1214 855L1242 954L1247 980L1252 954L1277 855L1257 852V838H1310V852L1296 855L1255 1003H1225L1195 900L1166 1003H1137L1092 855L1079 852V838ZM1407 1004C1383 1004 1365 997 1353 982C1341 967 1335 946 1335 920C1335 904 1338 889 1344 876C1351 863 1359 853 1371 846C1382 840 1395 836 1410 836C1434 836 1452 843 1464 858C1476 872 1482 892 1482 918C1482 935 1479 950 1473 963C1466 976 1457 986 1446 993C1435 1000 1421 1004 1407 1004ZM1409 849C1397 849 1387 855 1381 867C1374 879 1370 897 1370 920C1370 943 1374 961 1380 973C1387 985 1396 991 1408 991C1420 991 1430 984 1436 972C1443 959 1446 941 1446 918C1446 895 1443 878 1437 866C1430 855 1421 849 1409 849ZM1519 988L1537 986V855L1520 851V838H1552C1555 838 1558 838 1561 838C1565 838 1567 838 1569 837C1577 837 1583 837 1588 837C1603 837 1615 838 1624 841C1633 844 1640 849 1644 855C1648 862 1650 870 1650 880C1650 890 1648 900 1642 908C1637 917 1629 923 1619 926C1624 929 1630 933 1634 940C1639 946 1644 955 1649 966C1652 973 1655 978 1657 981C1659 984 1661 986 1663 986L1670 989V1002H1633C1630 1002 1628 999 1625 995C1623 990 1620 982 1615 972C1611 960 1606 950 1603 944C1599 937 1596 933 1592 931H1569V986L1589 988V1002H1519V988ZM1589 918C1598 918 1604 915 1609 909C1614 903 1616 894 1616 882C1616 871 1614 863 1609 858C1604 853 1596 850 1585 850C1581 850 1577 850 1574 851C1572 851 1570 851 1569 851V917C1571 918 1575 918 1582 918H1589ZM1817 1002C1815 1002 1812 999 1808 993C1805 988 1800 979 1794 966C1788 956 1784 947 1780 941C1776 934 1773 929 1769 925L1750 947V986L1769 989V1002H1700V988L1718 986V855L1700 852V838H1767V852L1750 855V926L1808 855L1790 852V838H1849V852L1831 855L1788 903C1793 907 1799 914 1804 923C1810 931 1817 942 1825 956C1831 966 1836 974 1839 978C1842 983 1844 986 1846 986L1856 989V1002H1817ZM1943 1004C1935 1004 1928 1003 1922 1002C1915 1001 1908 999 1901 997C1895 995 1892 995 1890 994L1892 954H1910L1915 982C1917 984 1920 986 1925 988C1930 989 1936 990 1942 990C1952 990 1959 988 1964 984C1969 979 1971 973 1971 965C1971 960 1970 956 1967 952C1964 948 1960 945 1955 942C1950 939 1943 935 1934 931C1922 926 1911 919 1903 912C1895 904 1892 893 1892 880C1892 872 1894 864 1898 858C1902 851 1908 846 1917 842C1925 838 1936 836 1948 836C1955 836 1961 837 1967 838C1972 839 1978 840 1985 842C1989 843 1992 843 1993 844L1992 882H1975L1970 855C1969 854 1966 853 1962 851C1958 850 1954 849 1949 849C1940 849 1933 852 1929 856C1924 860 1922 865 1922 872C1922 877 1924 882 1927 886C1930 890 1934 893 1939 896C1944 899 1951 902 1961 907C1970 911 1977 915 1982 919C1988 923 1993 928 1998 934C2002 940 2004 947 2004 955C2004 963 2002 971 1998 979C1994 986 1987 992 1978 997C1969 1002 1957 1004 1943 1004Z"
      fill="#FFFFFF" />
    <path
      d="M1714 721H1632L1766 346H1851L1985 721H1902L1819 458L1808 415L1796 458L1714 721ZM1708 643L1718 587H1889L1899 643H1708Z"
      fill="#FFFFFF" />
    <path d="M1436 721V410H1339L1324 350H1629L1614 410H1515V721H1436Z" fill="#FFFFFF" />
    <path
      d="M1140 725C1123 725 1106 724 1091 722C1076 719 1063 716 1051 713C1040 709 1032 706 1028 703L1039 641C1046 645 1054 648 1064 652C1074 656 1085 659 1097 661C1109 663 1122 665 1134 665C1154 665 1169 662 1178 655C1188 649 1193 639 1193 626C1193 616 1190 608 1185 601C1179 595 1171 588 1159 582C1148 575 1133 568 1115 559C1100 552 1085 543 1071 532C1058 522 1047 510 1038 495C1030 481 1025 464 1025 445C1025 428 1029 413 1035 400C1042 388 1052 377 1063 369C1075 361 1089 355 1104 351C1120 347 1137 346 1155 346C1180 346 1201 348 1218 353C1235 358 1246 362 1253 366L1239 426C1231 420 1221 415 1207 411C1193 406 1177 404 1159 404C1147 404 1137 405 1128 408C1119 411 1113 415 1108 420C1103 426 1101 432 1101 440C1101 449 1103 457 1107 464C1112 471 1119 477 1129 483C1139 489 1152 496 1168 504C1183 511 1196 518 1209 525C1221 533 1232 541 1241 550C1251 559 1258 569 1263 580C1268 591 1271 604 1271 619C1271 641 1266 661 1255 677C1245 692 1229 705 1210 713C1190 721 1167 725 1140 725Z"
      fill="#FFFFFF" />
    <path d="M697 721V350H923L908 409H775V502H887V560H775V661H918L939 721H697Z" fill="#FFFFFF" />
    <path fill-rule="evenodd" clip-rule="evenodd"
      d="M357 186C327 197 301 216 281 241L343 286C353 274 366 265 381 259L357 186Z" fill="#FFFFFF" />
    <path fill-rule="evenodd" clip-rule="evenodd"
      d="M474 186C504 197 530 216 550 241L488 286C478 274 465 265 450 259L474 186Z" fill="#FFFFFF" />
    <path fill-rule="evenodd" clip-rule="evenodd"
      d="M274 251C256 277 246 308 245 340H322C323 324 328 309 336 296L274 251Z" fill="#FFFFFF" />
    <path fill-rule="evenodd" clip-rule="evenodd"
      d="M557 251C575 277 585 308 586 340H510C509 324 504 309 495 296L557 251Z" fill="#FFFFFF" />
    <path d="M399 277L361 160H470L431 277H399Z" fill="#FFFFFF" />
    <path d="M210 350H367L347 408H328L423 643L502 408H482L462 350H619L599 408H580L472 721H374L249 408H230L210 350Z"
      fill="#FFFFFF" />
  </g>
</svg>